<mxfile host="app.diagrams.net" modified="2022-11-23T08:22:36.263Z" agent="5.0 (Macintosh; Intel Mac OS X 10_15_7) AppleWebKit/605.1.15 (KHTML, like Gecko) Version/15.3 Safari/605.1.15" version="20.6.0" etag="jcMhPcNCNmv0Sac1I8Zr" type="github">
  <diagram id="YJtl5HTyZOLG68UvCM0n" name="第 1 页">
    <mxGraphModel dx="1018" dy="723" grid="1" gridSize="10" guides="1" tooltips="1" connect="1" arrows="1" fold="1" page="1" pageScale="1" pageWidth="827" pageHeight="1169" math="0" shadow="0">
      <root>
        <mxCell id="0" />
        <mxCell id="1" parent="0" />
        <mxCell id="HF32aqo9pS53ZTFzaLPI-1" value="APP/Web/Email" style="rounded=1;whiteSpace=wrap;html=1;fillColor=#dae8fc;strokeColor=#6c8ebf;sketch=1;" vertex="1" parent="1">
          <mxGeometry x="130" y="205" width="120" height="60" as="geometry" />
        </mxCell>
        <mxCell id="HF32aqo9pS53ZTFzaLPI-4" value="" style="rounded=0;whiteSpace=wrap;html=1;sketch=1;arcSize=8;" vertex="1" parent="1">
          <mxGeometry x="130" y="320" width="460" height="240" as="geometry" />
        </mxCell>
        <mxCell id="HF32aqo9pS53ZTFzaLPI-9" value="DaoCloud Platform" style="text;html=1;strokeColor=none;fillColor=none;align=center;verticalAlign=middle;whiteSpace=wrap;rounded=0;sketch=1;" vertex="1" parent="1">
          <mxGeometry x="265" y="320" width="150" height="30" as="geometry" />
        </mxCell>
        <mxCell id="HF32aqo9pS53ZTFzaLPI-10" value="" style="rounded=0;whiteSpace=wrap;html=1;sketch=1;fillColor=#ffe6cc;strokeColor=#d79b00;" vertex="1" parent="1">
          <mxGeometry x="150" y="370" width="180" height="180" as="geometry" />
        </mxCell>
        <mxCell id="HF32aqo9pS53ZTFzaLPI-5" value="BurnPointStashApi" style="rounded=1;whiteSpace=wrap;html=1;sketch=1;fillColor=#d5e8d4;strokeColor=#82b366;" vertex="1" parent="1">
          <mxGeometry x="166" y="380" width="120" height="45" as="geometry" />
        </mxCell>
        <mxCell id="HF32aqo9pS53ZTFzaLPI-7" value="Fluent bit" style="whiteSpace=wrap;html=1;fillColor=#d5e8d4;strokeColor=#82b366;rounded=1;sketch=1;" vertex="1" parent="1">
          <mxGeometry x="166" y="490" width="120" height="35" as="geometry" />
        </mxCell>
        <mxCell id="HF32aqo9pS53ZTFzaLPI-11" value="pod" style="text;html=1;strokeColor=none;fillColor=none;align=center;verticalAlign=middle;whiteSpace=wrap;rounded=0;sketch=0;" vertex="1" parent="1">
          <mxGeometry x="200" y="520" width="60" height="30" as="geometry" />
        </mxCell>
        <mxCell id="HF32aqo9pS53ZTFzaLPI-12" value="" style="shape=cylinder3;whiteSpace=wrap;html=1;boundedLbl=1;backgroundOutline=1;size=15;rounded=0;sketch=1;rotation=-90;" vertex="1" parent="1">
          <mxGeometry x="300" y="620" width="60" height="80" as="geometry" />
        </mxCell>
        <mxCell id="HF32aqo9pS53ZTFzaLPI-13" value="Kafak" style="text;html=1;strokeColor=none;fillColor=none;align=center;verticalAlign=middle;whiteSpace=wrap;rounded=0;sketch=1;" vertex="1" parent="1">
          <mxGeometry x="310" y="645" width="60" height="30" as="geometry" />
        </mxCell>
        <mxCell id="HF32aqo9pS53ZTFzaLPI-14" value="" style="shape=flexArrow;endArrow=classic;html=1;rounded=0;" edge="1" parent="1">
          <mxGeometry width="50" height="50" relative="1" as="geometry">
            <mxPoint x="329.5" y="570" as="sourcePoint" />
            <mxPoint x="329.5" y="614" as="targetPoint" />
          </mxGeometry>
        </mxCell>
        <mxCell id="HF32aqo9pS53ZTFzaLPI-16" value="&lt;font face=&quot;Comic Sans MS&quot;&gt;/data/burnpoint/log&lt;br&gt;&lt;span style=&quot;&quot;&gt;	&lt;span style=&quot;white-space: pre;&quot;&gt;	&lt;/span&gt;20201124_0.log&lt;span style=&quot;white-space: pre;&quot;&gt;	&lt;span style=&quot;white-space: pre;&quot;&gt;	&lt;/span&gt;&lt;/span&gt;&lt;br&gt;&lt;/span&gt;&lt;span style=&quot;&quot;&gt;	&lt;/span&gt;&lt;span style=&quot;&quot;&gt;&lt;span style=&quot;white-space: pre;&quot;&gt;	&lt;/span&gt;20201124_0.log&lt;/span&gt;&lt;/font&gt;" style="text;html=1;strokeColor=none;fillColor=none;align=left;verticalAlign=top;whiteSpace=wrap;rounded=0;sketch=1;" vertex="1" parent="1">
          <mxGeometry x="215" y="430" width="140" height="70" as="geometry" />
        </mxCell>
        <mxCell id="HF32aqo9pS53ZTFzaLPI-18" value="" style="rounded=0;whiteSpace=wrap;html=1;sketch=1;fillColor=#ffe6cc;strokeColor=#d79b00;" vertex="1" parent="1">
          <mxGeometry x="360" y="370" width="180" height="180" as="geometry" />
        </mxCell>
        <mxCell id="HF32aqo9pS53ZTFzaLPI-19" value="BurnPointStashApi" style="rounded=1;whiteSpace=wrap;html=1;sketch=1;fillColor=#d5e8d4;strokeColor=#82b366;" vertex="1" parent="1">
          <mxGeometry x="376" y="380" width="124" height="45" as="geometry" />
        </mxCell>
        <mxCell id="HF32aqo9pS53ZTFzaLPI-20" value="Fluent bit" style="whiteSpace=wrap;html=1;fillColor=#d5e8d4;strokeColor=#82b366;rounded=1;sketch=1;" vertex="1" parent="1">
          <mxGeometry x="376" y="490" width="120" height="35" as="geometry" />
        </mxCell>
        <mxCell id="HF32aqo9pS53ZTFzaLPI-21" value="pod" style="text;html=1;strokeColor=none;fillColor=none;align=center;verticalAlign=middle;whiteSpace=wrap;rounded=0;sketch=0;" vertex="1" parent="1">
          <mxGeometry x="410" y="520" width="60" height="30" as="geometry" />
        </mxCell>
        <mxCell id="HF32aqo9pS53ZTFzaLPI-22" value="&lt;font face=&quot;Comic Sans MS&quot;&gt;/data/burnpoint/log&lt;br&gt;&lt;span style=&quot;&quot;&gt;	&lt;span style=&quot;white-space: pre;&quot;&gt;	&lt;/span&gt;20201124_0.log&lt;span style=&quot;white-space: pre;&quot;&gt;	&lt;span style=&quot;white-space: pre;&quot;&gt;	&lt;/span&gt;&lt;/span&gt;&lt;br&gt;&lt;/span&gt;&lt;span style=&quot;&quot;&gt;	&lt;/span&gt;&lt;span style=&quot;&quot;&gt;&lt;span style=&quot;white-space: pre;&quot;&gt;	&lt;/span&gt;20201124_0.log&lt;/span&gt;&lt;/font&gt;" style="text;html=1;strokeColor=none;fillColor=none;align=left;verticalAlign=top;whiteSpace=wrap;rounded=0;sketch=1;" vertex="1" parent="1">
          <mxGeometry x="425" y="430" width="140" height="70" as="geometry" />
        </mxCell>
        <mxCell id="HF32aqo9pS53ZTFzaLPI-28" value="" style="shape=flexArrow;endArrow=classic;html=1;rounded=0;" edge="1" parent="1">
          <mxGeometry width="50" height="50" relative="1" as="geometry">
            <mxPoint x="199" y="270" as="sourcePoint" />
            <mxPoint x="199" y="314" as="targetPoint" />
          </mxGeometry>
        </mxCell>
      </root>
    </mxGraphModel>
  </diagram>
</mxfile>
